PathFileType  4	(X/Y/Z) C:\Users\antoi\Documents\MyRepositories\mobilecap\ResultsAnalysis
DataRate	CameraRate	NumFrames	NumMarkers	Units	OrigDataRate	OrigDataStartFrame	OrigNumFrames
100.0	100.0	4	51	mm	100.0	79	125
Frame#	Time	r_knee			r_shank_antsup			r_ankle			r_calc			r_5meta			r_toe			L_knee			L_shank_antsup			L_ankle			L_calc			L_5meta			L_toe			r_sh2			r_sh3			r_sh4			L_sh2			L_sh3			r_thigh1			r_thigh2			r_thigh3			r_thigh4			r_thigh5			L_thigh1			L_thigh2			L_thigh3			L_thigh4			r.ASIS			r.PSIS			L.ASIS			L.PSIS			C7			R_Shoulder			L_Shoulder			R_Sternum			L_Sternum			R_humerus			R_elbow_med			R_elbow_lat			R_forearm			R_wrist_radius			R_wrist_ulna			L_humerus			L_elbow_med			L_elbow_lat			L_forearm			L_wrist_radius			L_wrist_ulna			R_HJC			L_HJC			R_HJC_reg			L_HJC_reg			
		X1	Y1	Z1	X2	Y2	Z2	X3	Y3	Z3	X4	Y4	Z4	X5	Y5	Z5	X6	Y6	Z6	X7	Y7	Z7	X8	Y8	Z8	X9	Y9	Z9	X10	Y10	Z10	X11	Y11	Z11	X12	Y12	Z12	X13	Y13	Z13	X14	Y14	Z14	X15	Y15	Z15	X16	Y16	Z16	X17	Y17	Z17	X18	Y18	Z18	X19	Y19	Z19	X20	Y20	Z20	X21	Y21	Z21	X22	Y22	Z22	X23	Y23	Z23	X24	Y24	Z24	X25	Y25	Z25	X26	Y26	Z26	X27	Y27	Z27	X28	Y28	Z28	X29	Y29	Z29	X30	Y30	Z30	X31	Y31	Z31	X32	Y32	Z32	X33	Y33	Z33	X34	Y34	Z34	X35	Y35	Z35	X36	Y36	Z36	X37	Y37	Z37	X38	Y38	Z38	X39	Y39	Z39	X40	Y40	Z40	X41	Y41	Z41	X42	Y42	Z42	X43	Y43	Z43	X44	Y44	Z44	X45	Y45	Z45	X46	Y46	Z46	X47	Y47	Z47	X48	Y48	Z48	X49	Y49	Z49	X50	Y50	Z50	X51	Y51	Z51	

79	0.78000000	1013.89849	467.41813	-115.67145	977.81452	407.90410	-94.79460	754.11864	208.25413	-164.45525	691.47942	227.42969	-218.87258	784.02945	99.35094	-128.75800	841.29432	85.04578	-171.84359	938.49402	460.07959	-401.61794	957.40729	391.45612	-399.22226	880.50032	91.66425	-360.52040	805.22994	63.41825	-315.74980	970.42945	39.36474	-377.07979	1019.55477	61.55166	-319.92558	896.47947	327.97925	-103.64048	929.22817	459.28311	-121.91631	842.69842	381.59441	-137.04496	869.94689	406.91562	-421.84459	860.46234	285.40508	-416.51173	988.52113	781.94191	-136.97899	1035.42133	680.47767	-115.26528	989.42417	644.16911	-80.04870	891.96234	751.00426	-89.70165	931.22966	640.56472	-89.94592	988.13733	752.93666	-430.80884	1000.66870	613.51755	-416.07259	878.27594	738.53361	-463.87023	896.90722	597.69157	-440.82622	953.31443	914.98451	-146.15666	777.17766	919.27882	-234.79866	974.09839	917.59425	-402.59687	781.57651	920.22299	-341.88180	848.19965	1398.38121	-297.60943	881.10083	1343.49923	-136.77840	922.35226	1334.12425	-451.44125	953.61015	1307.44082	-263.30759	957.35216	1305.15264	-307.69875	877.25867	1106.35739	-51.43707	831.22042	1001.61398	-102.32120	848.32179	1022.45830	-34.17380	908.24421	915.24256	-17.61239	939.56853	800.12543	-14.78037	898.44432	790.39993	-1.06098	967.12564	1205.69927	-492.71497	913.60397	988.32716	-476.20814	935.15712	1002.42882	-532.60953	1004.70507	916.05073	-545.16701	1043.09533	795.47903	-535.12520	1011.90563	781.64255	-553.52561	895.77357	835.12229	-180.53586	914.57768	840.84680	-379.85312	903.98190	828.48967	-185.31843	910.95306	829.98616	-354.98173	
80	0.79000000	1034.66767	471.65497	-115.95834	1000.92731	410.27312	-94.86037	788.89695	197.71828	-164.02969	724.69440	211.95304	-218.50125	826.61780	91.51064	-127.91728	884.78633	81.32485	-171.01777	942.22697	460.33514	-401.97288	960.34956	391.52279	-399.60027	881.26691	92.22164	-360.61247	805.54925	64.22488	-315.85594	970.55056	39.27229	-377.15979	1019.77356	61.19348	-319.99700	923.90932	325.99721	-103.26574	949.47578	458.99023	-121.88113	867.52081	376.30025	-137.07510	873.05872	407.92075	-421.62145	862.27633	286.54574	-416.38267	1003.16080	785.53137	-137.84510	1052.28715	685.33389	-115.88410	1007.71479	648.46471	-79.73829	907.61589	752.97648	-89.32524	949.27306	643.42366	-88.97827	997.64146	752.26089	-432.27106	1007.60569	612.66397	-417.05642	887.14815	739.75446	-464.12726	903.35444	598.59766	-440.60035	966.74199	916.75380	-148.11899	789.93661	920.37955	-234.45284	985.89084	918.16336	-404.40565	793.75943	921.16414	-341.46275	861.59966	1399.38366	-298.20715	893.72060	1344.58848	-137.36205	936.01191	1335.69013	-451.74445	966.81234	1308.41514	-263.69368	970.59388	1306.15973	-308.06634	886.75588	1107.53684	-51.69440	840.56427	1003.28813	-103.17901	856.78446	1023.99699	-34.81886	915.05973	916.13702	-16.94523	944.79049	800.65796	-13.27309	903.28601	791.52970	-0.22898	982.46861	1208.37231	-493.27948	933.92091	989.70861	-477.23306	955.80361	1004.31732	-533.20748	1028.98160	920.51490	-543.94904	1072.01096	801.67880	-532.16169	1041.59172	786.70535	-551.44269	909.26586	836.65006	-181.16533	926.25962	841.55004	-380.66590	917.33403	829.71319	-186.84035	923.39132	830.95624	-356.35014	
81	0.80000000	1054.62045	475.50508	-116.42049	1023.47857	412.26180	-95.04865	824.54871	186.68067	-163.59896	759.28297	195.72275	-218.23639	870.09222	83.84003	-126.93756	928.87053	77.87844	-169.97949	945.85949	460.60881	-402.25639	963.23246	391.61996	-399.88587	881.99746	92.80515	-360.69950	805.89531	65.08602	-315.96657	970.67388	39.17898	-377.23691	1020.01415	60.84785	-320.10065	951.40829	323.69858	-103.02026	969.13542	458.00614	-121.85287	892.25485	370.30072	-137.00977	876.16982	408.91099	-421.36624	864.09489	287.73765	-416.23920	1017.65133	788.74271	-138.69234	1068.75088	689.69689	-116.56489	1025.53302	652.36105	-79.51461	923.04297	754.70016	-88.88732	966.88608	646.00608	-88.11520	1006.97832	751.48782	-433.74937	1014.39552	611.73985	-418.11353	895.79922	740.89193	-464.28695	909.68330	599.44286	-440.24512	980.15745	918.06870	-150.01595	802.71112	921.22273	-233.98480	997.67488	918.45691	-406.12952	805.95541	921.87151	-340.90858	874.94494	1400.19614	-298.77741	906.50039	1345.44831	-137.90693	949.63126	1337.01010	-452.04507	980.03009	1309.20830	-264.15229	983.79933	1306.98046	-308.50705	896.30550	1108.55024	-51.90593	849.95018	1004.75876	-103.92174	865.29623	1025.37627	-35.38516	921.96471	916.92488	-16.20581	950.18161	801.10158	-11.73573	908.32990	792.55613	0.58764	997.74022	1210.83259	-493.90652	954.31282	991.00228	-478.08792	976.27575	1006.09232	-533.74959	1052.95627	925.05156	-542.72015	1100.59577	808.22057	-529.24897	1070.95791	792.07403	-549.30756	922.72951	837.79234	-181.75952	937.88807	841.99031	-381.42408	930.59644	830.60825	-188.31424	935.73639	831.63562	-357.66268	
82	0.81000000	1073.81233	478.89639	-117.07950	1045.50567	413.84707	-95.37906	861.07021	175.43084	-163.18476	795.34834	179.11167	-218.15334	914.19845	76.57654	-125.77049	973.33751	74.84917	-168.61865	949.39670	460.89360	-402.46728	966.09540	391.75411	-400.08705	882.69601	93.42090	-360.77994	806.27177	65.99412	-316.08174	970.79408	39.07581	-377.31062	1020.29055	60.51999	-320.25236	979.04174	321.16650	-102.94150	988.33111	456.27424	-121.92490	917.01183	363.68417	-136.91264	879.26888	409.90045	-421.08046	865.92134	289.00170	-416.07302	1032.02111	791.54842	-139.55068	1084.83352	693.49469	-117.34676	1042.83533	655.77031	-79.43787	938.25984	756.14296	-88.42132	984.06692	648.25610	-87.39796	1016.16663	750.62741	-435.14626	1021.08433	610.76693	-419.19444	904.27656	741.95154	-464.35488	915.92614	600.25310	-439.76589	993.54105	918.94752	-151.76076	815.51284	921.83770	-233.43362	1009.45821	918.46892	-407.71360	818.16957	922.39061	-340.26315	888.23690	1400.81915	-299.32591	919.42392	1346.06670	-138.40266	963.21194	1338.05524	-452.34611	993.24966	1309.81494	-264.65854	996.98357	1307.60898	-308.99795	905.94566	1109.36952	-52.07541	859.40783	1005.99515	-104.55469	873.91087	1026.56596	-35.87585	929.00087	917.56391	-15.39401	955.77548	801.42105	-10.13882	913.60462	793.42701	1.38268	1012.96253	1213.03380	-494.53550	974.73627	992.16933	-478.78492	996.59614	1007.72047	-534.24302	1076.63463	929.60545	-541.47826	1128.84098	815.00514	-526.41203	1100.04601	797.66452	-547.12957	936.11695	838.57066	-182.28989	949.48131	842.17686	-382.09583	943.77033	831.15710	-189.66706	947.97921	832.03222	-358.86724	
